<?xml version="1.0" standalone="no"?> <!DOCTYPE svg PUBLIC "-//W3C//DTD SVG 1.0//EN" "http://www.w3.org/TR/2001/REC-SVG-20010904/DTD/svg10.dtd" > <svg xmlns="http://www.w3.org/2000/svg" width="100%" height="100%">
<defs >
<font id="helveticaneueltprobd" horiz-adv-x="978" ><font-face
    font-family="HelveticaNeueLT Pro 55 Roman"
    units-per-em="2048"
    panose-1="2 11 8 4 2 2 2 2 2 4"
    ascent="1462"
    descent="-585"
    alphabetic="0" />
<missing-glyph horiz-adv-x="1048" d="M455 240H569V377H455V240ZM461 479H555Q555 586 567 627Q579 666 655 733Q731 802 757 856T784 979Q784 1099 713 1173T530 1247Q415 1247 341 1177T254 967L356 950Q368 1050 412 1097T524 1145Q588 1145 634 1095T680
971Q680 930 661 896T578 801Q515 740 483 680Q457 629 457 514L461 479ZM946 102H102V1366H946V102ZM1049 1470H0V0H1049V1470Z" />
<glyph unicode=" " glyph-name="space" horiz-adv-x="569" />
<glyph unicode="!" glyph-name="exclam" horiz-adv-x="569" d="M125 0V315H446V0H125ZM436 1462V1069L356 438H211L133 1069V1462H436Z" />
<glyph unicode="&quot;" glyph-name="quotedbl" horiz-adv-x="948" d="M174 805V1462H393V805H174ZM555 805V1462H774V805H555Z" />
<glyph unicode="#" glyph-name="numbersign" horiz-adv-x="1138" d="M694 844H498L461 590H659L694 844ZM180 0L238 406H68V590H262L299 844H129V1028H324L381 1434H580L522 1028H721L776 1434H975L920 1028H1071V844H893L858 590H1010V406H831L776 0H578L633
406H436L379 0H180Z" />
<glyph unicode="$" glyph-name="dollar" horiz-adv-x="1138" d="M-2 475H289Q288 365 349 295T508 205V633Q492 640 442 651Q371 670 320 688T211 739T117 813T57 917T33 1059Q33 1160 72 1242T178 1377T329 1460T508 1497V1655H629V1497Q724 1486 802 1457T943
1376T1045 1245T1090 1061H799Q797 1142 748 1199T629 1257V895Q688 881 733 868Q816 845 882 814T990 751T1062 678T1107 604T1130 527T1139 458T1141 393T1128 306T1078 200T986 94T838 9T629 -35V-209H508V-35Q44 0 -2 475ZM629 598V205Q669 209 706 222T776
259T830 321T850 406Q850 484 802 524T629 598ZM508 924V1257Q433 1257 379 1213T324 1087Q324 1020 366 984T508 924Z" />
<glyph unicode="%" glyph-name="percent" horiz-adv-x="2048" d="M1419 373Q1419 342 1419 324T1423 271T1435 215T1457 171T1495 137T1550 125Q1686 125 1686 371Q1686 616 1559 616Q1527 616 1503 605T1464 574T1440 531T1426 478T1421 425T1419 373ZM1210 375Q1210
550 1298 660T1559 770Q1651 770 1717 739T1821 652T1876 525T1894 367Q1894 252 1859 165T1744 25T1548 -29Q1456 -29 1389 2T1284 90T1228 217T1210 375ZM520 -45L1368 1479H1542L698 -45H520ZM362 1053Q362 1022 362 1004T366 954T378 901T401 860T438 828T494
817Q524 817 547 828T585 859T609 901T622 952T627 1003T629 1051Q629 1309 502 1309Q362 1309 362 1053ZM154 1057Q154 1172 190 1261T306 1406T502 1462Q594 1462 661 1430T765 1340T820 1210T838 1049Q838 873 752 769T492 664Q154 664 154 1057Z" />
<glyph unicode="&amp;" glyph-name="ampersand" horiz-adv-x="1402" d="M1069 0L950 145Q773 -29 539 -29Q334 -29 200 89T66 410Q66 484 92 550T165 669T268 761T393 834Q323 918 289 987T254 1145Q254 1292 367 1385T635 1479Q809 1479 922 1387T1036 1128Q1036
905 776 764L965 532Q1004 606 1018 707H1270Q1246 497 1128 346L1425 0H1069ZM797 340L547 645Q458 609 400 548T342 403Q342 324 405 268T551 211Q682 211 797 340ZM782 1145Q782 1202 743 1243T649 1284T557 1248T518 1155Q518 1133 523 1111T534 1074T555 1036T577
1004T606 969T633 936Q707 982 744 1027T782 1145Z" />
<glyph unicode="&apos;" glyph-name="quotesingle" horiz-adv-x="569" d="M176 805V1462H395V805H176Z" />
<glyph unicode="(" glyph-name="parenleft" horiz-adv-x="606" d="M377 1497H621Q397 1077 397 569Q397 56 618 -373H377Q106 75 106 549Q106 791 176 1049T377 1497Z" />
<glyph unicode=")" glyph-name="parenright" horiz-adv-x="606" d="M229 -373H-14Q209 48 209 553Q209 1068 -12 1497H229Q359 1283 429 1047T500 573Q500 332 430 72T229 -373Z" />
<glyph unicode="*" glyph-name="asterisk" horiz-adv-x="833" d="M496 1462V1206L733 1296L788 1139L547 1059L698 858L563 758L412 969L268 758L131 858L283 1059L45 1139L100 1296L332 1206V1462H496Z" />
<glyph unicode="+" glyph-name="plus" horiz-adv-x="1228" d="M725 1034V627H1133V408H725V0H506V408H98V627H506V1034H725Z" />
<glyph unicode="," glyph-name="comma" horiz-adv-x="569" d="M125 0V315H446V0Q446 -136 355 -227T127 -340V-193Q191 -180 234 -124T272 0H125Z" />
<glyph unicode="-" glyph-name="hyphen" horiz-adv-x="833" d="M109 434V684H725V434H109Z" />
<glyph unicode="." glyph-name="period" horiz-adv-x="569" d="M123 0V315H444V0H123Z" />
<glyph unicode="/" glyph-name="slash" horiz-adv-x="759" d="M-23 -35L549 1497H782L211 -35H-23Z" />
<glyph unicode="0" glyph-name="zero" horiz-adv-x="1138" d="M334 723Q334 685 334 663T337 594T342 518T354 444T374 371T403 309T443 257T497 224T567 211Q616 211 655 232T718 283T760 363T786 452T799 552T804 642T805 723Q805 770 805 799T800 886T787 983T761
1072T719 1151T655 1202T567 1223Q519 1223 481 1203T419 1153T378 1074T352 987T340 890T335 803T334 727Q334 724 334 723ZM43 723Q43 886 70 1014T145 1225T260 1362T403 1439T567 1462T732 1440T877 1363T992 1225T1068 1014T1096 723Q1096 556 1068 426T993
212T877 72T733 -6T567 -29Q494 -29 430 -13T305 39T198 133T116 274T62 469T43 723Z" />
<glyph unicode="1" glyph-name="one" horiz-adv-x="1138" d="M803 1434V0H512V930H152V1149Q231 1147 299 1160T425 1206T521 1296T571 1434H803Z" />
<glyph unicode="2" glyph-name="two" horiz-adv-x="1138" d="M354 883H76Q71 1048 128 1178T307 1385T596 1462Q728 1462 839 1410T1018 1254T1087 1014Q1087 925 1062 851T991 724T890 625T769 537T643 455T521 362T418 250H1096V0H43Q43 81 58 150T105 275T173
378T264 470T369 552T488 636Q493 639 496 641Q514 653 560 684T631 732T692 782T748 842T782 909T797 991Q797 1092 737 1152T582 1212Q520 1212 474 1183T403 1104T366 999T354 883Z" />
<glyph unicode="3" glyph-name="three" horiz-adv-x="1138" d="M467 649V854Q505 853 546 853T628 865T701 895T752 949T772 1032Q772 1120 713 1171T569 1223Q462 1223 404 1152T348 967H72Q80 1191 213 1326T567 1462Q637 1462 705 1446T836 1396T945 1316T1021
1204T1049 1065Q1049 959 997 880T848 772V768Q966 742 1034 654T1102 442Q1102 333 1058 242T940 93T770 3T569 -29Q324 -29 179 110T37 494H313Q318 369 381 290T565 211Q665 211 732 273T799 436Q799 475 792 506T768 559T734 597T689 622T640 638T584 646T529
648T475 649Q469 649 467 649Z" />
<glyph unicode="4" glyph-name="four" horiz-adv-x="1138" d="M639 571V1069H633L262 571H639ZM639 0V332H33V598L655 1434H915V571H1106V332H915V0H639Z" />
<glyph unicode="5" glyph-name="five" horiz-adv-x="1138" d="M1024 1434V1194H432L375 868L379 864Q438 923 505 949T659 975Q796 975 898 909T1051 733T1102 487Q1102 379 1059 282T944 117T773 9T569 -29Q485 -29 408 -11T264 44T147 135T68 263T37 426H328Q339
329 403 270T563 211Q673 211 742 293T811 487Q811 603 744 679T563 756Q487 756 438 729T344 641H82L223 1434H1024Z" />
<glyph unicode="6" glyph-name="six" horiz-adv-x="1138" d="M586 743Q475 743 415 667T354 477Q354 371 417 291T586 211Q685 211 745 289T805 473Q805 583 748 663T586 743ZM1071 1065H795Q780 1140 727 1191T602 1243Q542 1243 494 1213T417 1136T367 1028T339
914T328 807L332 803Q391 887 469 925T655 963Q746 963 834 923T985 815Q1096 686 1096 496Q1096 350 1034 231T856 41T594 -29Q468 -29 371 14T212 127T112 295T58 495T43 713Q43 822 62 926T124 1128T231 1300T391 1417T606 1462Q795 1462 921 1358T1071 1065Z"
/>
<glyph unicode="7" glyph-name="seven" horiz-adv-x="1138" d="M1059 1434V1184Q950 1089 860 943T713 636T624 311T590 0H279Q303 316 428 614T760 1163H80V1434H1059Z" />
<glyph unicode="8" glyph-name="eight" horiz-adv-x="1138" d="M352 1044Q352 956 415 906T571 856Q665 856 725 905T786 1044Q786 1069 782 1093T763 1146T725 1194T663 1229T571 1243Q479 1243 416 1190T352 1044ZM88 1071Q88 1164 130 1240T242 1364T397 1436T571
1462Q673 1462 757 1435T895 1367T984 1273T1036 1171T1051 1077Q1051 970 997 891T842 776V772Q970 743 1040 651T1110 422Q1110 334 1080 259T999 132T878 43T732 -11T573 -29Q489 -29 411 -13T263 40T141 128T59 255T29 420Q29 556 100 648T299 772V776Q197
805 143 884T88 1071ZM319 434Q319 326 392 258T573 190Q679 190 749 258T819 432Q819 533 748 597T573 662Q463 662 391 602T319 434Z" />
<glyph unicode="9" glyph-name="nine" horiz-adv-x="1138" d="M553 690Q664 690 724 766T784 956Q784 1063 721 1143T553 1223Q454 1223 394 1145T334 961Q334 850 390 770T553 690ZM68 369H344Q358 293 411 242T537 190Q588 190 630 211T700 269T750 349T783
444T801 539T811 627L807 631Q748 547 670 509T483 471Q391 471 304 510T154 618Q43 748 43 938Q43 1084 105 1203T282 1392T545 1462Q671 1462 768 1419T927 1306T1027 1138T1081 938T1096 721Q1096 612 1077 508T1015 306T908 134T747 16T532 -29Q344 -29 218
76T68 369Z" />
<glyph unicode=":" glyph-name="colon" horiz-adv-x="569" d="M446 1040V725H125V1040H446ZM125 0V315H446V0H125Z" />
<glyph unicode=";" glyph-name="semicolon" horiz-adv-x="569" d="M446 1040V725H125V1040H446ZM125 0V315H446V0Q446 -136 355 -227T127 -340V-193Q191 -180 234 -124T272 0H125Z" />
<glyph unicode="&lt;" glyph-name="less" horiz-adv-x="1228" d="M1135 1053V817L383 518L1135 219V-16L94 397V639L1135 1053Z" />
<glyph unicode="=" glyph-name="equal" horiz-adv-x="1228" d="M1133 408V188H98V408H1133ZM1133 846V627H98V846H1133Z" />
<glyph unicode="&gt;" glyph-name="greater" horiz-adv-x="1228" d="M94 -16V219L846 518L94 817V1053L1135 639V397L94 -16Z" />
<glyph unicode="?" glyph-name="question" horiz-adv-x="1138" d="M395 0V315H717V0H395ZM367 991H66Q71 1214 206 1355T563 1497Q673 1497 763 1471T909 1403T1004 1308T1057 1203T1073 1102Q1073 1022 1055 960T1006 858T938 786T862 727T790 673T732 606T700
516V438H424V530Q430 602 451 660T503 755T567 822T635 878T694 930T737 992T752 1073Q752 1165 707 1211T578 1257Q473 1257 420 1183T367 991Z" />
<glyph unicode="@" glyph-name="at" horiz-adv-x="1638" d="M1274 1116L1145 588Q1128 531 1128 500Q1128 453 1163 453Q1255 453 1330 561T1405 829Q1405 987 1331 1103T1132 1276T850 1333Q590 1333 430 1162T270 727Q270 551 347 414T562 203T874 129Q1004
129 1119 173T1315 297H1487Q1383 138 1219 52T862 -35Q701 -35 556 24T304 184T136 428T74 731Q74 890 136 1032T303 1276T551 1437T852 1497Q991 1497 1120 1452T1347 1327T1505 1128T1565 872Q1565 772 1539 683T1469 532T1374 419T1266 340T1165 295T1083 279Q1018
279 979 311T934 395H930Q895 336 837 306T709 276Q578 276 483 380T387 627Q387 724 419 817T508 985T650 1104T834 1149Q908 1149 974 1115T1073 1006L1106 1116H1274ZM596 653Q596 572 640 522T756 471Q826 471 885 519T976 637T1008 780Q1008 855 963 904T850
954Q778 954 719 907T628 792T596 653Z" />
<glyph unicode="A" glyph-name="A" horiz-adv-x="1402" d="M700 1102L510 565H889L705 1102H700ZM-14 0L541 1462H870L1417 0H1083L973 326H426L311 0H-14Z" />
<glyph unicode="B" glyph-name="B" horiz-adv-x="1441" d="M463 1212V870H788Q879 870 932 913T985 1044Q985 1084 973 1114T941 1163T892 1192T832 1208T764 1212H463ZM141 0V1462H829Q938 1462 1020 1444T1166 1384T1263 1271T1296 1100Q1296 892 1098 795Q1230
757 1298 660T1366 424Q1366 317 1323 234T1207 100T1043 25T850 0H141ZM463 651V250H807Q1044 250 1044 442Q1044 651 813 651H463Z" />
<glyph unicode="C" glyph-name="C" horiz-adv-x="1517" d="M1427 971H1116Q1100 1079 1008 1153T797 1227Q713 1227 645 1199T532 1124T457 1012T413 876T399 725Q399 649 412 580T456 448T532 338T645 264T797 236Q940 236 1024 324T1128 563H1440Q1415 289 1241
127T797 -35Q632 -35 495 24T268 187T128 428T78 725Q78 943 162 1117T412 1394T797 1497Q958 1497 1093 1437T1318 1256T1427 971Z" />
<glyph unicode="D" glyph-name="D" horiz-adv-x="1517" d="M463 1192V270H750Q823 270 886 294T1001 367T1084 504T1114 709Q1114 824 1093 909T1023 1060T892 1158T692 1192H463ZM141 0V1462H772Q887 1462 987 1434T1169 1347T1311 1203T1403 1000T1436 739Q1436
578 1395 445T1273 211T1064 56T772 0H141Z" />
<glyph unicode="E" glyph-name="E" horiz-adv-x="1327" d="M141 0V1462H1235V1192H463V879H1171V629H463V270H1251V0H141Z" />
<glyph unicode="F" glyph-name="F" horiz-adv-x="1214" d="M141 0V1462H1169V1192H463V854H1075V604H463V0H141Z" />
<glyph unicode="G" glyph-name="G" horiz-adv-x="1554" d="M1231 0L1198 166Q1042 -35 797 -35Q632 -35 495 24T268 187T128 428T78 725Q78 943 162 1117T412 1394T797 1497Q910 1497 1015 1463T1204 1365T1345 1202T1413 981H1106Q1077 1102 996 1164T797 1227Q713
1227 645 1199T532 1124T457 1012T413 876T399 725Q399 649 412 580T456 448T532 338T645 264T797 236Q955 236 1043 316T1145 551H821V791H1436V0H1231Z" />
<glyph unicode="H" glyph-name="H" horiz-adv-x="1517" d="M141 0V1462H463V901H1055V1462H1376V0H1055V631H463V0H141Z" />
<glyph unicode="I" glyph-name="I" horiz-adv-x="604" d="M141 0V1462H463V0H141Z" />
<glyph unicode="J" glyph-name="J" horiz-adv-x="1138" d="M997 1462V461Q997 394 989 336T951 206T870 84T728 0T510 -35Q415 -35 331 -9T179 71T70 213T29 418V545H319V479Q319 361 359 299T506 236Q541 236 568 244T614 264T644 298T663 337T672 383T675 428T676
475V1462H997Z" />
<glyph unicode="K" glyph-name="K" horiz-adv-x="1478" d="M141 0V1462H463V856L1034 1462H1436L864 885L1491 0H1087L647 657L463 471V0H141Z" />
<glyph unicode="L" glyph-name="L" horiz-adv-x="1214" d="M141 0V1462H463V270H1176V0H141Z" />
<glyph unicode="M" glyph-name="M" horiz-adv-x="1857" d="M141 0V1462H594L936 457H940L1264 1462H1716V0H1415V1036H1411L1053 0H805L446 1026H442V0H141Z" />
<glyph unicode="N" glyph-name="N" horiz-adv-x="1517" d="M141 0V1462H461L1071 481H1075V1462H1376V0H1055L446 979H442V0H141Z" />
<glyph unicode="O" glyph-name="O" horiz-adv-x="1593" d="M399 725Q399 649 412 580T456 448T532 338T645 264T797 236T948 263T1061 337T1136 447T1180 580T1194 725Q1194 804 1181 875T1137 1012T1062 1124T949 1199T797 1227T645 1199T532 1124T457 1012T413
876T399 725ZM78 725Q78 943 162 1117T412 1394T797 1497Q962 1497 1098 1438T1326 1274T1466 1029T1516 725Q1516 567 1467 429T1326 187T1099 25T797 -35T495 24T268 187T128 428T78 725Z" />
<glyph unicode="P" glyph-name="P" horiz-adv-x="1366" d="M463 1212V774H713Q761 774 799 779T875 798T938 835T979 899T995 993Q995 1060 973 1105T908 1173T820 1203T713 1212H463ZM141 0V1462H801Q907 1462 993 1436T1137 1366T1234 1261T1290 1134T1307 993Q1307
900 1279 819T1192 671T1034 564T801 524H463V0H141Z" />
<glyph unicode="Q" glyph-name="Q" horiz-adv-x="1593" d="M788 381L938 541L1104 389Q1194 510 1194 725Q1194 804 1181 875T1137 1012T1062 1124T949 1199T797 1227T645 1199T532 1124T457 1012T413 876T399 725Q399 649 412 580T456 448T532 338T645 264T797
236Q801 236 814 236T834 236T852 236T870 237T887 239T903 243T915 248T926 256L788 381ZM1507 20L1358 -137L1151 51Q1001 -35 797 -35Q632 -35 495 24T268 187T128 428T78 725Q78 943 162 1117T412 1394T797 1497Q962 1497 1098 1438T1326 1274T1466 1029T1516
725Q1516 403 1325 186L1507 20Z" />
<glyph unicode="R" glyph-name="R" horiz-adv-x="1478" d="M463 1212V801H815Q927 801 981 851T1036 1010Q1036 1114 981 1163T815 1212H463ZM141 0V1462H930Q1122 1462 1240 1346T1358 1059Q1358 785 1126 692V688Q1320 635 1339 346Q1340 335 1343 268T1350
165T1367 79T1401 0H1079Q1062 41 1054 98T1039 234T1028 350Q1011 468 957 519T784 571H463V0H141Z" />
<glyph unicode="S" glyph-name="S" horiz-adv-x="1329" d="M49 485H360Q360 415 386 362T458 277T560 231T684 215Q721 215 757 219T832 236T901 268T950 321T969 397Q969 430 957 457T919 505T866 541T794 570T715 593T625 616T535 639Q462 657 405 676T288 730T189
806T124 913T98 1055Q98 1163 146 1250T273 1389T447 1469T645 1497Q739 1497 823 1481T983 1429T1112 1338T1199 1205T1231 1026H920Q912 1148 836 1197T631 1247Q575 1247 528 1232T445 1178T410 1081Q410 1018 451 986Q497 951 671 905Q719 892 846 860Q882
852 905 846T978 823T1063 786T1142 733T1213 659T1260 561T1280 434Q1280 226 1121 96T672 -35Q547 -35 437 -4T238 89T98 253T49 485Z" />
<glyph unicode="T" glyph-name="T" horiz-adv-x="1251" d="M465 0V1192H27V1462H1225V1192H786V0H465Z" />
<glyph unicode="U" glyph-name="U" horiz-adv-x="1517" d="M1382 1462V553Q1382 262 1220 114T758 -35Q456 -35 296 111T135 553V1462H457V553Q457 500 463 458T488 373T539 301T627 254T758 236Q926 236 993 310T1061 553V1462H1382Z" />
<glyph unicode="V" glyph-name="V" horiz-adv-x="1290" d="M1307 1462L821 0H459L-16 1462H315L641 434H645L975 1462H1307Z" />
<glyph unicode="W" glyph-name="W" horiz-adv-x="1933" d="M1927 1462L1534 0H1214L967 995H963L719 0H393L6 1462H328L559 467H563L817 1462H1118L1368 455H1372L1612 1462H1927Z" />
<glyph unicode="X" glyph-name="X" horiz-adv-x="1366" d="M-12 0L500 766L29 1462H401L688 995L985 1462H1337L868 764L1378 0H995L676 506L350 0H-12Z" />
<glyph unicode="Y" glyph-name="Y" horiz-adv-x="1366" d="M520 0V569L-18 1462H344L686 885L1026 1462H1384L842 561V0H520Z" />
<glyph unicode="Z" glyph-name="Z" horiz-adv-x="1327" d="M47 0V254L831 1192H109V1462H1260V1208L475 270H1280V0H47Z" />
<glyph unicode="[" glyph-name="bracketleft" horiz-adv-x="681" d="M139 -373V1497H680V1268H430V-143H680V-373H139Z" />
<glyph unicode="\" glyph-name="backslash" horiz-adv-x="759" d="M211 1497L782 -35H549L-23 1497H211Z" />
<glyph unicode="]" glyph-name="bracketright" horiz-adv-x="681" d="M543 1497V-373H2V-143H252V1268H2V1497H543Z" />
<glyph unicode="^" glyph-name="asciicircum" horiz-adv-x="1228" d="M125 645L477 1434H752L1104 645H864L614 1208L365 645H125Z" />
<glyph unicode="_" glyph-name="underscore" horiz-adv-x="1024" d="M0 -256V-154H1024V-256H0Z" />
<glyph unicode="`" glyph-name="grave" horiz-adv-x="530" d="M217 1206L-98 1497H223L420 1206H217Z" />
<glyph unicode="a" glyph-name="a" horiz-adv-x="1175" d="M389 733H98Q104 831 148 902T265 1012T419 1069T596 1087Q1061 1087 1061 786V236Q1061 59 1098 0H803Q784 61 782 102Q656 -29 426 -29Q266 -29 166 52T66 289Q67 387 107 453T210 549T348 597T499
621T636 638T735 675T770 750Q770 794 756 823T714 867T655 887T582 893Q403 893 389 733ZM770 410V518Q753 503 723 493T666 478T595 467T528 457Q490 450 463 440T409 413T370 368T356 301Q356 166 535 166Q770 166 770 410Z" />
<glyph unicode="b" glyph-name="b" horiz-adv-x="1251" d="M887 528Q887 674 824 771T639 868T454 771T391 528Q391 436 416 362T499 239T639 190T779 239T862 362T887 528ZM111 0V1462H401V930H406Q457 1008 546 1047T739 1087Q821 1087 897 1054T1037 955T1139
780T1178 530Q1178 391 1140 281T1037 105T897 5T739 -29Q481 -29 391 135H387V0H111Z" />
<glyph unicode="c" glyph-name="c" horiz-adv-x="1175" d="M1116 686H831Q804 868 616 868Q562 868 519 847T449 792T403 713T377 620T369 524Q369 463 381 407T420 301T496 220T610 190Q711 190 769 247T842 406H1122Q1093 197 959 84T612 -29Q374 -29 226 123T78
514Q78 768 222 927T618 1087Q714 1087 799 1062T954 989T1067 862T1116 686Z" />
<glyph unicode="d" glyph-name="d" horiz-adv-x="1251" d="M862 532Q862 600 849 658T808 764T730 840T612 868Q543 868 492 840T412 763T370 656T356 530Q356 466 371 407T416 299T496 220T612 190Q668 190 711 209T783 260T829 336T854 429T862 532ZM866 0V135H862Q766
-29 541 -29Q425 -29 333 18T183 145T96 325T66 539Q66 647 96 744T183 919T331 1041T535 1087Q631 1087 715 1047T848 930H852V1462H1143V0H866Z" />
<glyph unicode="e" glyph-name="e" horiz-adv-x="1175" d="M350 643H823Q803 757 749 812T592 868Q525 868 476 845T402 785T365 714T350 643ZM1114 459H350Q356 321 420 256T610 190Q693 190 759 232T840 328H1096Q980 -29 600 -29Q352 -29 206 125T59 528Q59
769 210 928T600 1087Q705 1087 793 1053T943 960T1046 821T1104 649T1114 459Z" />
<glyph unicode="f" glyph-name="f" horiz-adv-x="681" d="M174 0V864H0V1059H174V1141Q174 1287 264 1374T528 1462Q558 1462 613 1459T682 1454V1237Q630 1243 575 1243Q516 1243 491 1216T465 1122V1059H666V864H465V0H174Z" />
<glyph unicode="g" glyph-name="g" horiz-adv-x="1251" d="M604 250Q722 250 787 335T852 543Q852 611 840 667T800 769T722 842T604 868Q488 868 429 782T369 567Q369 519 376 476T400 390T443 318T510 269T604 250ZM1128 1059V68Q1128 26 1124 -13T1104 -100T1065
-190T999 -271T901 -339T763 -384T580 -401Q498 -401 421 -381T275 -322T163 -215T113 -61H401Q437 -207 618 -207Q735 -207 794 -136T852 55V195H848Q802 114 717 73T530 31Q414 31 326 72T184 188T105 356T78 563Q78 667 108 761T194 928T337 1044T532 1087Q640
1087 717 1047T848 918H852V1059H1128Z" />
<glyph unicode="h" glyph-name="h" horiz-adv-x="1214" d="M111 0V1462H401V911H408Q460 997 544 1042T717 1087Q830 1087 907 1057T1027 966T1086 831T1104 651V0H813V598Q813 732 770 795T627 858Q508 858 455 787T401 555V0H111Z" />
<glyph unicode="i" glyph-name="i" horiz-adv-x="528" d="M410 1462V1223H119V1462H410ZM119 0V1059H410V0H119Z" />
<glyph unicode="j" glyph-name="j" horiz-adv-x="569" d="M428 1462V1223H137V1462H428ZM-39 -365V-125Q-18 -133 25 -133Q77 -133 107 -114T137 -39V1059H428V-53Q428 -166 397 -233T283 -337T55 -373Q2 -373 -39 -365Z" />
<glyph unicode="k" glyph-name="k" horiz-adv-x="1175" d="M137 0V1462H428V678L795 1059H1139L739 670L1184 0H831L541 473L428 365V0H137Z" />
<glyph unicode="l" glyph-name="l" horiz-adv-x="528" d="M119 0V1462H410V0H119Z" />
<glyph unicode="m" glyph-name="m" horiz-adv-x="1855" d="M119 0V1059H393V915H397Q517 1087 721 1087Q952 1087 1030 911Q1083 988 1164 1037T1350 1087Q1530 1087 1633 996T1737 709V0H1446V600Q1446 650 1444 682T1431 751T1403 809T1350 844T1268 858Q1073
858 1073 590V0H782V594Q782 599 782 610Q782 637 782 650T781 689T776 728T767 762T753 794T731 820T700 841T659 853T606 858Q586 858 564 853T513 832T462 790T425 719T410 614V0H119Z" />
<glyph unicode="n" glyph-name="n" horiz-adv-x="1214" d="M111 0V1059H387V911H393Q446 998 533 1042T717 1087Q830 1087 907 1057T1027 966T1086 831T1104 651V0H813V598Q813 732 770 795T627 858Q508 858 455 787T401 555V0H111Z" />
<glyph unicode="o" glyph-name="o" horiz-adv-x="1251" d="M369 596T369 528T382 403T423 296T502 218T625 190T748 218T828 295T870 402T883 528T870 653T829 761T748 839T625 868T503 840T423 761T382 654ZM78 528Q78 782 227 934T625 1087Q875 1087 1024 935T1174
528Q1174 276 1024 124T625 -29Q377 -29 228 123T78 528Z" />
<glyph unicode="p" glyph-name="p" horiz-adv-x="1251" d="M645 190Q714 190 764 217T843 294T884 400T897 526Q897 593 883 652T840 760T761 839T643 868Q588 868 544 849T472 797T426 721T399 628T391 526Q391 458 404 400T447 294T526 218T645 190ZM111 -373V1059H387V924H391Q494
1087 707 1087Q827 1087 921 1041T1072 915T1158 735T1188 518Q1188 432 1170 353T1114 204T1022 83T891 1T723 -29Q625 -29 542 12T406 131H401V-373H111Z" />
<glyph unicode="q" glyph-name="q" horiz-adv-x="1251" d="M356 528Q356 461 369 403T410 296T489 219T608 190Q663 190 707 208T779 257T827 331T854 422T862 524Q862 589 849 647T807 757T730 838T614 868Q559 868 515 849T441 798T393 722T365 630T356 528ZM1143
1059V-373H852V133H848Q800 51 710 11T514 -29Q463 -29 413 -17T311 22T217 93T139 197T86 339T66 522Q66 634 95 733T182 913T331 1040T541 1087Q646 1087 731 1047T862 924H866V1059H1143Z" />
<glyph unicode="r" glyph-name="r" horiz-adv-x="796" d="M111 0V1059H387V862H391Q432 962 526 1024T729 1087Q758 1087 793 1077V807Q748 817 688 817Q610 817 553 791T464 718T416 611T401 477V0H111Z" />
<glyph unicode="s" glyph-name="s" horiz-adv-x="1099" d="M59 344H336Q336 256 401 211T559 166Q633 166 691 199T750 301Q750 327 735 348T695 384T625 414T535 439T420 465Q361 479 319 491T230 527T153 578T104 649T84 748Q84 845 123 914T230 1019T375 1071T545
1087Q617 1087 679 1077T801 1043T904 982T976 885T1012 750H735Q725 893 537 893Q375 893 375 795Q375 773 384 756T412 725T452 701T507 682T567 667T636 652T705 637Q763 624 805 610T895 572T971 519T1020 443T1040 340Q1040 259 1013 195T940 90T831 21T700
-17T557 -29Q480 -29 412 -18T279 21T168 91T92 197T59 344Z" />
<glyph unicode="t" glyph-name="t" horiz-adv-x="720" d="M479 1376V1059H692V864H479V340Q479 266 503 242T602 217Q657 217 692 225V-2Q631 -12 522 -12Q463 -12 418 -7T327 15T253 59T206 132T188 240V864H12V1059H188V1376H479Z" />
<glyph unicode="u" glyph-name="u" horiz-adv-x="1214" d="M1104 1059V0H827V147H821Q768 60 682 16T498 -29Q385 -29 308 1T188 92T129 227T111 408V1059H401V461Q401 327 444 264T588 201Q706 201 759 272T813 504V1059H1104Z" />
<glyph unicode="v" glyph-name="v" horiz-adv-x="1064" d="M1055 1059L696 0H373L10 1059H315L539 336H543L766 1059H1055Z" />
<glyph unicode="w" glyph-name="w" horiz-adv-x="1667" d="M1655 1059L1321 0H1022L834 711H829L649 0H348L12 1059H319L514 340H518L694 1059H977L1157 342H1161L1356 1059H1655Z" />
<glyph unicode="x" glyph-name="x" horiz-adv-x="1099" d="M0 0L381 557L33 1059H365L551 782L735 1059H1057L709 563L1100 0H768L547 334L326 0H0Z" />
<glyph unicode="y" glyph-name="y" horiz-adv-x="1062" d="M1075 1059L633 -133Q585 -261 501 -317T268 -373Q184 -373 90 -362V-123Q201 -135 260 -133Q315 -127 344 -90T373 0Q373 36 360 66L-12 1059H299L539 334H543L774 1059H1075Z" />
<glyph unicode="z" glyph-name="z" horiz-adv-x="1062" d="M45 0V219L596 840H86V1059H979V840L428 219H1018V0H45Z" />
<glyph unicode="{" glyph-name="braceleft" horiz-adv-x="681" d="M682 1497V1268H571Q461 1268 461 1118V807Q461 750 445 706T407 637T355 596T302 573T258 565V559Q279 557 302 550T354 527T407 486T445 423T461 334V6Q461 -143 571 -143H682V-373H422Q393
-373 361 -363T294 -329T233 -275T188 -197T170 -96V303Q170 361 136 401T60 457T-18 473V651Q9 651 39 660T99 690T150 749T170 836V1221Q170 1287 196 1342T261 1429T343 1479T422 1497H682Z" />
<glyph unicode="|" glyph-name="bar" horiz-adv-x="456" d="M119 -438V1610H338V-438H119Z" />
<glyph unicode="}" glyph-name="braceright" horiz-adv-x="681" d="M0 -373V-143H111Q221 -143 221 6V334Q221 383 236 422T274 486T326 526T378 550T424 559V565Q394 568 365 578T301 612T243 686T221 807V1118Q221 1268 111 1268H0V1497H260Q296 1497 338 1480T420
1430T486 1342T512 1221V836Q512 787 532 749T582 691T643 661T700 651V473Q663 473 622 458T547 402T512 303V-96Q512 -150 495 -196T450 -274T388 -329T322 -362T260 -373H0Z" />
<glyph unicode="~" glyph-name="asciitilde" horiz-adv-x="1228" d="M1010 705L1092 514Q1065 474 1044 448T991 394T920 352T836 338Q744 338 627 406Q504 477 391 477Q287 477 219 330L137 520Q223 696 393 696Q472 696 621 631Q634 625 665 611T712 590T752
574T794 561T829 557Q859 557 884 568T934 606T971 649T1010 705Z" />
<glyph unicode="&#x80;" glyph-name="Euro" horiz-adv-x="1138" d="M1180 1376L1055 1120Q911 1212 786 1212Q571 1212 500 932H999L936 784H477L475 698H911L848 551H492Q557 227 795 227Q946 227 1110 356L1108 47Q971 -35 793 -35Q532 -35 377 133Q234 282
190 551H33L96 698H178V752Q178 778 180 784H31L94 932H199Q246 1177 401 1323Q564 1479 807 1479Q979 1479 1180 1376Z" />
</font>
</defs>
</svg>
